<mxfile host="Electron" modified="2023-06-14T10:37:53.176Z" agent="Mozilla/5.0 (Windows NT 10.0; Win64; x64) AppleWebKit/537.36 (KHTML, like Gecko) draw.io/21.2.8 Chrome/112.0.5615.165 Electron/24.2.0 Safari/537.36" etag="K2yIvXGsNjAez74_zbV1" version="21.2.8" type="device">
  <diagram name="Page-1" id="SD9TQfveuRXEukYZgc3E">
    <mxGraphModel dx="864" dy="526" grid="1" gridSize="10" guides="1" tooltips="1" connect="1" arrows="1" fold="1" page="1" pageScale="1" pageWidth="827" pageHeight="1169" math="0" shadow="0">
      <root>
        <mxCell id="0" />
        <mxCell id="1" parent="0" />
        <mxCell id="W2D_xqBnYNd4QtpVP3z_-2" value="" style="rounded=0;whiteSpace=wrap;html=1;" vertex="1" parent="1">
          <mxGeometry x="214" y="80" width="200" height="120" as="geometry" />
        </mxCell>
        <mxCell id="W2D_xqBnYNd4QtpVP3z_-4" style="edgeStyle=orthogonalEdgeStyle;rounded=0;orthogonalLoop=1;jettySize=auto;html=1;entryX=0;entryY=0.5;entryDx=0;entryDy=0;" edge="1" parent="1" source="W2D_xqBnYNd4QtpVP3z_-3" target="W2D_xqBnYNd4QtpVP3z_-2">
          <mxGeometry relative="1" as="geometry" />
        </mxCell>
        <mxCell id="W2D_xqBnYNd4QtpVP3z_-3" value="" style="triangle;whiteSpace=wrap;html=1;" vertex="1" parent="1">
          <mxGeometry x="50" y="100" width="60" height="80" as="geometry" />
        </mxCell>
        <mxCell id="W2D_xqBnYNd4QtpVP3z_-5" value="A Customer will apply for the loan&amp;nbsp;&lt;br&gt;along with name income details personal Id and amount required" style="text;html=1;strokeColor=none;fillColor=none;align=center;verticalAlign=middle;whiteSpace=wrap;rounded=0;" vertex="1" parent="1">
          <mxGeometry x="220" y="90" width="190" height="100" as="geometry" />
        </mxCell>
        <mxCell id="W2D_xqBnYNd4QtpVP3z_-7" value="" style="rounded=0;whiteSpace=wrap;html=1;" vertex="1" parent="1">
          <mxGeometry x="230" y="280" width="200" height="120" as="geometry" />
        </mxCell>
        <mxCell id="W2D_xqBnYNd4QtpVP3z_-8" value="Finace agent will check income details and eligibility for loan amount" style="text;html=1;strokeColor=none;fillColor=none;align=center;verticalAlign=middle;whiteSpace=wrap;rounded=0;" vertex="1" parent="1">
          <mxGeometry x="230" y="290" width="190" height="100" as="geometry" />
        </mxCell>
        <mxCell id="W2D_xqBnYNd4QtpVP3z_-13" value="" style="rounded=0;whiteSpace=wrap;html=1;" vertex="1" parent="1">
          <mxGeometry x="540" y="280" width="200" height="120" as="geometry" />
        </mxCell>
        <mxCell id="W2D_xqBnYNd4QtpVP3z_-14" value="Personal agent will check personal id details and authenticate wheather person is genuine" style="text;html=1;strokeColor=none;fillColor=none;align=center;verticalAlign=middle;whiteSpace=wrap;rounded=0;" vertex="1" parent="1">
          <mxGeometry x="546" y="290" width="190" height="100" as="geometry" />
        </mxCell>
        <mxCell id="W2D_xqBnYNd4QtpVP3z_-16" value="" style="rounded=0;whiteSpace=wrap;html=1;" vertex="1" parent="1">
          <mxGeometry x="380" y="550" width="200" height="120" as="geometry" />
        </mxCell>
        <mxCell id="W2D_xqBnYNd4QtpVP3z_-17" value="A&amp;nbsp; Loan manager will finally approve the loan or reject the loan" style="text;html=1;strokeColor=none;fillColor=none;align=center;verticalAlign=middle;whiteSpace=wrap;rounded=0;" vertex="1" parent="1">
          <mxGeometry x="385" y="540" width="190" height="100" as="geometry" />
        </mxCell>
        <mxCell id="W2D_xqBnYNd4QtpVP3z_-25" value="" style="endArrow=classic;html=1;rounded=0;exitX=0.25;exitY=1;exitDx=0;exitDy=0;entryX=0.25;entryY=1;entryDx=0;entryDy=0;" edge="1" parent="1" source="W2D_xqBnYNd4QtpVP3z_-7" target="W2D_xqBnYNd4QtpVP3z_-2">
          <mxGeometry relative="1" as="geometry">
            <mxPoint x="210" y="460" as="sourcePoint" />
            <mxPoint x="310" y="460" as="targetPoint" />
            <Array as="points">
              <mxPoint x="280" y="440" />
              <mxPoint x="160" y="440" />
              <mxPoint x="160" y="240" />
              <mxPoint x="264" y="240" />
            </Array>
          </mxGeometry>
        </mxCell>
        <mxCell id="W2D_xqBnYNd4QtpVP3z_-26" value="ReUpdate" style="edgeLabel;resizable=0;html=1;align=center;verticalAlign=middle;" connectable="0" vertex="1" parent="W2D_xqBnYNd4QtpVP3z_-25">
          <mxGeometry relative="1" as="geometry" />
        </mxCell>
        <mxCell id="W2D_xqBnYNd4QtpVP3z_-27" value="" style="endArrow=classic;html=1;rounded=0;entryX=0.435;entryY=0.017;entryDx=0;entryDy=0;entryPerimeter=0;" edge="1" parent="1" target="W2D_xqBnYNd4QtpVP3z_-7">
          <mxGeometry relative="1" as="geometry">
            <mxPoint x="410" y="140" as="sourcePoint" />
            <mxPoint x="300" y="540" as="targetPoint" />
            <Array as="points">
              <mxPoint x="480" y="140" />
              <mxPoint x="480" y="240" />
              <mxPoint x="317" y="240" />
            </Array>
          </mxGeometry>
        </mxCell>
        <mxCell id="W2D_xqBnYNd4QtpVP3z_-28" value="Submitted" style="edgeLabel;resizable=0;html=1;align=center;verticalAlign=middle;" connectable="0" vertex="1" parent="W2D_xqBnYNd4QtpVP3z_-27">
          <mxGeometry relative="1" as="geometry">
            <mxPoint x="-42" as="offset" />
          </mxGeometry>
        </mxCell>
        <mxCell id="W2D_xqBnYNd4QtpVP3z_-29" value="" style="endArrow=classic;html=1;rounded=0;exitX=0.625;exitY=1.033;exitDx=0;exitDy=0;exitPerimeter=0;entryX=0.5;entryY=0;entryDx=0;entryDy=0;" edge="1" parent="1" source="W2D_xqBnYNd4QtpVP3z_-7" target="W2D_xqBnYNd4QtpVP3z_-16">
          <mxGeometry relative="1" as="geometry">
            <mxPoint x="210" y="550" as="sourcePoint" />
            <mxPoint x="310" y="550" as="targetPoint" />
            <Array as="points">
              <mxPoint x="355" y="440" />
              <mxPoint x="480" y="440" />
            </Array>
          </mxGeometry>
        </mxCell>
        <mxCell id="W2D_xqBnYNd4QtpVP3z_-30" value="Aproved" style="edgeLabel;resizable=0;html=1;align=center;verticalAlign=middle;" connectable="0" vertex="1" parent="W2D_xqBnYNd4QtpVP3z_-29">
          <mxGeometry relative="1" as="geometry" />
        </mxCell>
        <mxCell id="W2D_xqBnYNd4QtpVP3z_-31" value="" style="endArrow=classic;html=1;rounded=0;exitX=0.5;exitY=1;exitDx=0;exitDy=0;" edge="1" parent="1" source="W2D_xqBnYNd4QtpVP3z_-13">
          <mxGeometry relative="1" as="geometry">
            <mxPoint x="220" y="560" as="sourcePoint" />
            <mxPoint x="480" y="550" as="targetPoint" />
            <Array as="points">
              <mxPoint x="640" y="440" />
              <mxPoint x="480" y="440" />
            </Array>
          </mxGeometry>
        </mxCell>
        <mxCell id="W2D_xqBnYNd4QtpVP3z_-32" value="Aproved" style="edgeLabel;resizable=0;html=1;align=center;verticalAlign=middle;" connectable="0" vertex="1" parent="W2D_xqBnYNd4QtpVP3z_-31">
          <mxGeometry relative="1" as="geometry" />
        </mxCell>
        <mxCell id="W2D_xqBnYNd4QtpVP3z_-33" value="" style="endArrow=classic;html=1;rounded=0;entryX=0.5;entryY=0;entryDx=0;entryDy=0;exitX=1;exitY=0.5;exitDx=0;exitDy=0;" edge="1" parent="1" source="W2D_xqBnYNd4QtpVP3z_-5" target="W2D_xqBnYNd4QtpVP3z_-13">
          <mxGeometry relative="1" as="geometry">
            <mxPoint x="324" y="210" as="sourcePoint" />
            <mxPoint x="327" y="292" as="targetPoint" />
            <Array as="points">
              <mxPoint x="480" y="140" />
              <mxPoint x="480" y="240" />
              <mxPoint x="640" y="240" />
            </Array>
          </mxGeometry>
        </mxCell>
        <mxCell id="W2D_xqBnYNd4QtpVP3z_-34" value="Submitted" style="edgeLabel;resizable=0;html=1;align=center;verticalAlign=middle;" connectable="0" vertex="1" parent="W2D_xqBnYNd4QtpVP3z_-33">
          <mxGeometry relative="1" as="geometry">
            <mxPoint x="51" as="offset" />
          </mxGeometry>
        </mxCell>
        <mxCell id="W2D_xqBnYNd4QtpVP3z_-35" value="" style="endArrow=classic;html=1;rounded=0;exitX=0.715;exitY=1;exitDx=0;exitDy=0;entryX=1;entryY=0.25;entryDx=0;entryDy=0;exitPerimeter=0;" edge="1" parent="1" source="W2D_xqBnYNd4QtpVP3z_-13" target="W2D_xqBnYNd4QtpVP3z_-5">
          <mxGeometry relative="1" as="geometry">
            <mxPoint x="650" y="410" as="sourcePoint" />
            <mxPoint x="490" y="490" as="targetPoint" />
            <Array as="points">
              <mxPoint x="683" y="440" />
              <mxPoint x="800" y="440" />
              <mxPoint x="800" y="120" />
            </Array>
          </mxGeometry>
        </mxCell>
        <mxCell id="W2D_xqBnYNd4QtpVP3z_-36" value="Reupdate" style="edgeLabel;resizable=0;html=1;align=center;verticalAlign=middle;" connectable="0" vertex="1" parent="W2D_xqBnYNd4QtpVP3z_-35">
          <mxGeometry relative="1" as="geometry">
            <mxPoint y="155" as="offset" />
          </mxGeometry>
        </mxCell>
        <mxCell id="W2D_xqBnYNd4QtpVP3z_-39" value="" style="endArrow=classic;html=1;rounded=0;exitX=0.455;exitY=1.033;exitDx=0;exitDy=0;exitPerimeter=0;" edge="1" parent="1" source="W2D_xqBnYNd4QtpVP3z_-7">
          <mxGeometry relative="1" as="geometry">
            <mxPoint x="280" y="600" as="sourcePoint" />
            <mxPoint x="380" y="600" as="targetPoint" />
            <Array as="points">
              <mxPoint x="320" y="600" />
            </Array>
          </mxGeometry>
        </mxCell>
        <mxCell id="W2D_xqBnYNd4QtpVP3z_-40" value="Reject" style="edgeLabel;resizable=0;html=1;align=center;verticalAlign=middle;" connectable="0" vertex="1" parent="W2D_xqBnYNd4QtpVP3z_-39">
          <mxGeometry relative="1" as="geometry" />
        </mxCell>
        <mxCell id="W2D_xqBnYNd4QtpVP3z_-41" value="" style="endArrow=classic;html=1;rounded=0;exitX=0.29;exitY=1.033;exitDx=0;exitDy=0;exitPerimeter=0;entryX=0;entryY=0.5;entryDx=0;entryDy=0;" edge="1" parent="1" source="W2D_xqBnYNd4QtpVP3z_-16" target="W2D_xqBnYNd4QtpVP3z_-50">
          <mxGeometry relative="1" as="geometry">
            <mxPoint x="446" y="730" as="sourcePoint" />
            <mxPoint x="438" y="800" as="targetPoint" />
            <Array as="points">
              <mxPoint x="438" y="760" />
              <mxPoint x="280" y="760" />
              <mxPoint x="280" y="840" />
            </Array>
          </mxGeometry>
        </mxCell>
        <mxCell id="W2D_xqBnYNd4QtpVP3z_-42" value="Approved&amp;nbsp;" style="edgeLabel;resizable=0;html=1;align=center;verticalAlign=middle;" connectable="0" vertex="1" parent="W2D_xqBnYNd4QtpVP3z_-41">
          <mxGeometry relative="1" as="geometry" />
        </mxCell>
        <mxCell id="W2D_xqBnYNd4QtpVP3z_-43" value="" style="endArrow=classic;html=1;rounded=0;exitX=0.59;exitY=0.992;exitDx=0;exitDy=0;exitPerimeter=0;entryX=1.01;entryY=0.425;entryDx=0;entryDy=0;entryPerimeter=0;" edge="1" parent="1" source="W2D_xqBnYNd4QtpVP3z_-13" target="W2D_xqBnYNd4QtpVP3z_-16">
          <mxGeometry relative="1" as="geometry">
            <mxPoint x="670" y="520" as="sourcePoint" />
            <mxPoint x="770" y="520" as="targetPoint" />
            <Array as="points">
              <mxPoint x="660" y="600" />
            </Array>
          </mxGeometry>
        </mxCell>
        <mxCell id="W2D_xqBnYNd4QtpVP3z_-44" value="Reject" style="edgeLabel;resizable=0;html=1;align=center;verticalAlign=middle;" connectable="0" vertex="1" parent="W2D_xqBnYNd4QtpVP3z_-43">
          <mxGeometry relative="1" as="geometry" />
        </mxCell>
        <mxCell id="W2D_xqBnYNd4QtpVP3z_-45" value="" style="endArrow=classic;html=1;rounded=0;exitX=0.555;exitY=1.025;exitDx=0;exitDy=0;exitPerimeter=0;entryX=0;entryY=0.5;entryDx=0;entryDy=0;" edge="1" parent="1" source="W2D_xqBnYNd4QtpVP3z_-16" target="W2D_xqBnYNd4QtpVP3z_-48">
          <mxGeometry relative="1" as="geometry">
            <mxPoint x="490" y="700" as="sourcePoint" />
            <mxPoint x="491" y="800" as="targetPoint" />
            <Array as="points">
              <mxPoint x="490" y="840" />
            </Array>
          </mxGeometry>
        </mxCell>
        <mxCell id="W2D_xqBnYNd4QtpVP3z_-46" value="Reject" style="edgeLabel;resizable=0;html=1;align=center;verticalAlign=middle;" connectable="0" vertex="1" parent="W2D_xqBnYNd4QtpVP3z_-45">
          <mxGeometry relative="1" as="geometry" />
        </mxCell>
        <mxCell id="W2D_xqBnYNd4QtpVP3z_-48" value="" style="triangle;whiteSpace=wrap;html=1;" vertex="1" parent="1">
          <mxGeometry x="560" y="800" width="90" height="80" as="geometry" />
        </mxCell>
        <mxCell id="W2D_xqBnYNd4QtpVP3z_-49" value="Process Terminated" style="text;html=1;strokeColor=none;fillColor=none;align=center;verticalAlign=middle;whiteSpace=wrap;rounded=0;" vertex="1" parent="1">
          <mxGeometry x="560" y="825" width="60" height="30" as="geometry" />
        </mxCell>
        <mxCell id="W2D_xqBnYNd4QtpVP3z_-50" value="" style="triangle;whiteSpace=wrap;html=1;" vertex="1" parent="1">
          <mxGeometry x="340" y="800" width="80" height="80" as="geometry" />
        </mxCell>
        <mxCell id="W2D_xqBnYNd4QtpVP3z_-51" value="Finally Approved" style="text;html=1;strokeColor=none;fillColor=none;align=center;verticalAlign=middle;whiteSpace=wrap;rounded=0;" vertex="1" parent="1">
          <mxGeometry x="340" y="825" width="60" height="30" as="geometry" />
        </mxCell>
        <mxCell id="W2D_xqBnYNd4QtpVP3z_-52" value="Start" style="text;html=1;strokeColor=none;fillColor=none;align=center;verticalAlign=middle;whiteSpace=wrap;rounded=0;" vertex="1" parent="1">
          <mxGeometry x="50" y="125" width="60" height="30" as="geometry" />
        </mxCell>
      </root>
    </mxGraphModel>
  </diagram>
</mxfile>
